<svg id="Layer_1" data-name="Layer 1" xmlns="http://www.w3.org/2000/svg" viewBox="0 0 277.97 182.51"><defs><style>.cls-1{fill:#be1e2d;stroke:#00a651;stroke-miterlimit:10;stroke-width:8px;}</style></defs><path class="cls-1" d="M421.14,116.33a31.27,31.27,0,0,0-15.29,4c-11.11-36.6-47.17-63.42-89.93-63.42S237.09,83.68,226,120.28a31.27,31.27,0,0,0-15.29-4c-16.44,0-29.76,12.44-29.76,27.78s13.32,27.78,29.76,27.78A31.17,31.17,0,0,0,226,167.94c11.11,36.61,47.17,63.43,89.94,63.43s78.82-26.82,89.93-63.43a31.17,31.17,0,0,0,15.29,3.95c16.44,0,29.76-12.44,29.76-27.78S437.58,116.33,421.14,116.33Z" transform="translate(-176.93 -52.86)"/></svg>